<svg width="145" height="54" viewBox="0 0 145 54" fill="none" xmlns="http://www.w3.org/2000/svg">
<path opacity="0.5" d="M56.0109 37.9552H56.0777C56.0777 37.6215 56.1407 37.2434 56.2667 36.8207L58.2799 30.0917H62.3507L58.0241 41.4365H54.1535L49.8269 30.0917H53.9088L55.833 36.7985C55.833 36.8133 55.8441 36.8726 55.8663 36.9764C55.8886 37.0728 55.9071 37.1655 55.9219 37.2545C55.9813 37.5363 56.0109 37.7698 56.0109 37.9552ZM70.6051 34.3627C70.5977 33.814 70.4457 33.3765 70.1491 33.0502C69.8525 32.724 69.4558 32.5609 68.959 32.5609C68.4696 32.5609 68.0729 32.7129 67.7689 33.0169C67.4723 33.3135 67.298 33.7621 67.2461 34.3627H70.6051ZM69.1814 41.6367C67.2906 41.6367 65.8225 41.1362 64.777 40.1352C63.7315 39.1193 63.2087 37.6697 63.2087 35.7863C63.2087 33.903 63.6907 32.4496 64.6546 31.4264C65.6186 30.4031 66.9792 29.8915 68.7365 29.8915C70.4939 29.8915 71.8359 30.3401 72.7628 31.2373C73.6971 32.1345 74.1642 33.4173 74.1642 35.0856V36.8207H67.1683C67.1905 37.4584 67.4204 37.9589 67.8579 38.3222C68.2953 38.6782 68.87 38.8561 69.5818 38.8561C70.3011 38.8561 70.9536 38.7931 71.5394 38.667C72.1251 38.5336 72.7517 38.3074 73.419 37.9886V40.8025C72.8258 41.1139 72.1993 41.329 71.5394 41.4476C70.8868 41.5737 70.1009 41.6367 69.1814 41.6367ZM87.4517 41.4365H83.5367V35.2525C83.5367 33.7324 83.0807 32.9724 82.1686 32.9724C81.5161 32.9724 81.0379 33.2356 80.7338 33.7621C80.4372 34.2811 80.2889 35.1857 80.2889 36.4759V41.4365H76.3739V30.0917H79.3324L79.8218 31.4931H80.0554C80.7227 30.4254 81.8646 29.8915 83.4811 29.8915C84.7342 29.8915 85.7092 30.2585 86.4062 30.9926C87.1032 31.7193 87.4517 32.7425 87.4517 34.0624V41.4365ZM94.6069 37.4436C94.6069 38.1776 94.9592 38.5447 95.6636 38.5447C96.1826 38.5447 96.8129 38.4149 97.5544 38.1554V41.0027C97.0724 41.2178 96.583 41.3772 96.0862 41.481C95.5968 41.5848 95.0259 41.6367 94.3734 41.6367C93.0758 41.6367 92.1304 41.3179 91.5372 40.6802C90.9514 40.0425 90.6585 39.0489 90.6585 37.6994V33.028H89.2905V31.4375L91.0256 30.2029L92.0377 27.8227H94.6069V30.0917H97.3875V33.028H94.6069V37.4436ZM110.567 41.4365H107.62L107.131 40.024H106.897C106.571 40.543 106.111 40.9434 105.518 41.2252C104.932 41.4995 104.25 41.6367 103.471 41.6367C102.226 41.6367 101.254 41.2734 100.557 40.5467C99.8677 39.82 99.5229 38.8005 99.5229 37.4881V30.0917H103.438V36.2868C103.438 37.0432 103.542 37.6104 103.749 37.9886C103.964 38.3593 104.309 38.5447 104.784 38.5447C105.459 38.5447 105.937 38.2815 106.219 37.755C106.508 37.2211 106.652 36.3239 106.652 35.0634V30.0917H110.567V41.4365ZM120.114 29.8915C120.366 29.8915 120.763 29.9323 121.304 30.0138L120.959 33.7065C120.618 33.6249 120.173 33.5841 119.625 33.5841C117.993 33.5841 117.178 34.3441 117.178 35.8642V41.4365H113.263V30.0917H116.177L116.788 31.9046H116.977C117.304 31.2966 117.76 30.8109 118.345 30.4476C118.939 30.0769 119.528 29.8915 120.114 29.8915ZM129.386 34.3627C129.379 33.814 129.227 33.3765 128.93 33.0502C128.634 32.724 128.237 32.5609 127.74 32.5609C127.251 32.5609 126.854 32.7129 126.55 33.0169C126.254 33.3135 126.079 33.7621 126.027 34.3627H129.386ZM127.963 41.6367C126.072 41.6367 124.604 41.1362 123.558 40.1352C122.513 39.1193 121.99 37.6697 121.99 35.7863C121.99 33.903 122.472 32.4496 123.436 31.4264C124.4 30.4031 125.76 29.8915 127.518 29.8915C129.275 29.8915 130.617 30.3401 131.544 31.2373C132.478 32.1345 132.945 33.4173 132.945 35.0856V36.8207H125.95C125.972 37.4584 126.202 37.9589 126.639 38.3222C127.077 38.6782 127.651 38.8561 128.363 38.8561C129.082 38.8561 129.735 38.7931 130.321 38.667C130.906 38.5336 131.533 38.3074 132.2 37.9886V40.8025C131.607 41.1139 130.981 41.329 130.321 41.4476C129.668 41.5737 128.882 41.6367 127.963 41.6367ZM142.774 35.3081C143.538 35.9087 143.92 36.8022 143.92 37.9886C143.92 39.1749 143.508 40.0796 142.685 40.7024C141.869 41.3253 140.679 41.6367 139.115 41.6367C138.277 41.6367 137.546 41.5922 136.924 41.5032C136.301 41.4142 135.667 41.2474 135.022 41.0027V37.8773C135.659 38.1591 136.334 38.3816 137.046 38.5447C137.765 38.7078 138.403 38.7894 138.959 38.7894C139.804 38.7894 140.227 38.5966 140.227 38.211C140.227 38.0108 140.112 37.8366 139.882 37.6883C139.652 37.5325 138.959 37.2248 137.802 36.7651C136.749 36.3202 136.019 35.8308 135.611 35.297C135.203 34.7557 134.999 34.0698 134.999 33.2393C134.999 32.1938 135.407 31.3745 136.223 30.7813C137.039 30.1881 138.147 29.8915 139.548 29.8915C140.957 29.8915 142.385 30.214 143.831 30.8591L142.763 33.3839C142.236 33.1466 141.688 32.9464 141.117 32.7833C140.553 32.6202 140.079 32.5386 139.693 32.5386C139.055 32.5386 138.737 32.6943 138.737 33.0058C138.737 33.1985 138.848 33.3654 139.07 33.5063C139.293 33.6397 139.938 33.9178 141.005 34.3404C141.799 34.6667 142.388 34.9892 142.774 35.3081Z" fill="white"/>
<path d="M54.2419 22.4365H50.3045V6.86521H54.2419V12.9825C54.2419 14.0132 54.1677 15.0401 54.0194 16.0634H54.1084C54.5755 15.3071 54.9759 14.7176 55.3096 14.2949L57.8566 11.0917H62.2166L58.2904 15.9188L62.4724 22.4365H58.0012L55.5098 18.3768L54.2419 19.3445V22.4365ZM73.9284 22.4365H71.2257L70.4694 20.935H70.3915C69.8799 21.5801 69.3423 22.025 68.7788 22.2697C68.2227 22.5143 67.5145 22.6367 66.6544 22.6367C65.5793 22.6367 64.7377 22.3141 64.1296 21.6691C63.5216 21.024 63.2176 20.1268 63.2176 18.9774C63.2176 16.6492 64.8526 15.4183 68.1226 15.2848L70.0245 15.2181V15.0624C70.0245 14.1281 69.5611 13.661 68.6342 13.661C67.8186 13.661 66.7693 13.939 65.4866 14.4951L64.3521 11.9148C65.6794 11.2326 67.3477 10.8915 69.3571 10.8915C70.8105 10.8915 71.9338 11.2548 72.7272 11.9815C73.528 12.7081 73.9284 13.7129 73.9284 14.9956V22.4365ZM67.2105 18.8329C67.2105 19.5299 67.5813 19.8784 68.3228 19.8784C68.7973 19.8784 69.2014 19.7301 69.5351 19.4335C69.8688 19.1369 70.0356 18.7439 70.0356 18.2545V17.3758L69.1347 17.4092C67.8519 17.4685 67.2105 17.9431 67.2105 18.8329ZM87.6578 22.4365H83.7427V16.2525C83.7427 14.7324 83.2867 13.9724 82.3747 13.9724C81.7222 13.9724 81.2439 14.2356 80.9399 14.7621C80.6433 15.2811 80.495 16.1857 80.495 17.4759V22.4365H76.5799V11.0917H79.5385L80.0279 12.4931H80.2614C80.9288 11.4254 82.0707 10.8915 83.6871 10.8915C84.9402 10.8915 85.9153 11.2585 86.6123 11.9926C87.3093 12.7193 87.6578 13.7425 87.6578 15.0624V22.4365ZM93.9677 22.8258C93.5451 22.8258 93.1891 22.9222 92.9 23.115C92.6108 23.3152 92.4662 23.5673 92.4662 23.8713C92.4662 24.1753 92.6404 24.4237 92.9889 24.6165C93.3374 24.8167 93.8009 24.9168 94.3792 24.9168C95.3209 24.9168 96.0809 24.7981 96.6593 24.5609C97.2303 24.3236 97.5157 24.0196 97.5157 23.6488C97.5157 23.3522 97.3489 23.1409 97.0152 23.0149C96.6816 22.8888 96.1773 22.8258 95.5026 22.8258H93.9677ZM101.019 11.0917V12.9825L99.4621 13.5609C99.6772 13.9539 99.7847 14.4025 99.7847 14.9067C99.7847 16.145 99.3509 17.0978 98.4834 17.7651C97.6232 18.4324 96.3479 18.7661 94.6573 18.7661C94.2198 18.7661 93.8861 18.7402 93.6563 18.6883C93.5599 18.8514 93.5117 19.0145 93.5117 19.1776C93.5117 19.3704 93.6637 19.5187 93.9677 19.6225C94.2791 19.7263 94.6944 19.7783 95.2134 19.7783H97.1042C99.6475 19.7783 100.919 20.8497 100.919 22.9926C100.919 24.3644 100.326 25.4358 99.1396 26.207C97.9606 26.9781 96.3108 27.3637 94.1901 27.3637C92.5811 27.3637 91.3391 27.093 90.4642 26.5518C89.5966 26.0179 89.1628 25.2467 89.1628 24.2383C89.1628 22.8814 90.0044 22.0064 91.6876 21.6134C91.3391 21.4651 91.0351 21.2316 90.7756 20.9127C90.5235 20.5865 90.3974 20.2565 90.3974 19.9228C90.3974 19.5818 90.4901 19.2777 90.6755 19.0108C90.8683 18.7365 91.2761 18.4102 91.8989 18.032C91.2983 17.7651 90.8312 17.3573 90.4975 16.8086C90.1713 16.2525 90.0081 15.5777 90.0081 14.7843C90.0081 13.5534 90.4271 12.5969 91.265 11.9148C92.1103 11.2326 93.3115 10.8915 94.8686 10.8915C95.4396 10.8915 96.1699 10.9582 97.0597 11.0917H101.019ZM94.9131 13.0715C94.1049 13.0715 93.7008 13.6535 93.7008 14.8177C93.7008 15.9744 94.1049 16.5528 94.9131 16.5528C95.6917 16.5528 96.0809 15.9744 96.0809 14.8177C96.0809 13.6535 95.6917 13.0715 94.9131 13.0715ZM104.005 27.3637C103.486 27.3637 102.953 27.3081 102.404 27.1969V24.116C102.767 24.1975 103.145 24.2383 103.538 24.2383C104.265 24.2383 104.821 23.9825 105.207 23.4709C105.399 23.2188 105.607 22.8221 105.83 22.2808L101.358 11.0917H105.485L107.409 17.5983C107.505 17.9616 107.568 18.3731 107.598 18.8329H107.676C107.735 18.3435 107.817 17.9394 107.921 17.6205L109.889 11.0917H113.882L109.4 23.1594C108.821 24.6869 108.113 25.7695 107.275 26.4072C106.438 27.0449 105.348 27.3637 104.005 27.3637ZM126.264 22.4365H123.316L122.827 21.024H122.593C122.267 21.543 121.807 21.9434 121.214 22.2252C120.628 22.4995 119.946 22.6367 119.168 22.6367C117.922 22.6367 116.951 22.2734 116.254 21.5467C115.564 20.82 115.219 19.8005 115.219 18.4881V11.0917H119.134V17.2868C119.134 18.0432 119.238 18.6104 119.446 18.9886C119.661 19.3593 120.006 19.5447 120.48 19.5447C121.155 19.5447 121.633 19.2815 121.915 18.755C122.204 18.2211 122.349 17.3239 122.349 16.0634V11.0917H126.264V22.4365Z" fill="white"/>
<g clip-path="url(#clip0_159_2134)">
<path d="M40.62 14.7006C40.6197 14.6804 40.6188 14.6603 40.6178 14.6402C40.616 14.6017 40.6129 14.5635 40.6088 14.5253C40.6067 14.5076 40.6056 14.49 40.6031 14.4723C40.596 14.4216 40.5863 14.3714 40.5752 14.3216C40.5707 14.302 40.5654 14.2824 40.5602 14.2627C40.5498 14.2225 40.538 14.1826 40.5246 14.1433C40.52 14.1292 40.5159 14.1148 40.5107 14.1006C40.492 14.0487 40.4703 13.9977 40.4471 13.9477C40.4406 13.9337 40.4338 13.9199 40.427 13.9062C40.3745 13.7999 40.3119 13.6983 40.24 13.6025C40.2308 13.5901 40.2215 13.5777 40.2119 13.5656C40.1772 13.5216 40.1411 13.4786 40.1025 13.4374C40.0919 13.4261 40.0808 13.4156 40.07 13.4046C40.0401 13.3742 40.0096 13.3448 39.9777 13.3162C39.9621 13.3021 39.9466 13.2882 39.9306 13.2747C39.8905 13.2406 39.8489 13.2078 39.8059 13.1768C39.7908 13.1657 39.7746 13.1558 39.7592 13.1453C39.7265 13.123 39.6927 13.1015 39.6583 13.0809C39.6401 13.0699 39.6218 13.059 39.6033 13.0486C39.5951 13.044 39.5876 13.0391 39.5794 13.0346L21.5415 3.26191C20.897 2.9127 20.103 2.9127 19.4586 3.26191L1.42049 13.0346C1.41285 13.0388 1.40549 13.0435 1.39799 13.0478C1.37828 13.0587 1.35911 13.0703 1.33967 13.0819C1.3069 13.1016 1.27483 13.1222 1.24344 13.1436C1.22664 13.1549 1.20956 13.1657 1.19318 13.1774C1.15055 13.2082 1.10972 13.2405 1.07015 13.274C1.05348 13.2879 1.03752 13.3025 1.02127 13.3171C0.990025 13.3451 0.960171 13.3739 0.931149 13.4035C0.919763 13.415 0.908098 13.4259 0.89699 13.4378C0.858665 13.4787 0.822839 13.5216 0.788402 13.5652C0.778543 13.5777 0.7691 13.5902 0.759519 13.603C0.687729 13.6987 0.625381 13.8002 0.573031 13.9064C0.566089 13.9202 0.559284 13.934 0.552758 13.9479C0.529569 13.9981 0.507907 14.0489 0.489161 14.1009C0.484023 14.115 0.479996 14.1293 0.475136 14.1435C0.461944 14.183 0.450141 14.2227 0.439588 14.263C0.434589 14.2827 0.429312 14.3022 0.42473 14.3219C0.413621 14.3717 0.403901 14.4217 0.396819 14.4724C0.39432 14.4901 0.393209 14.5078 0.391126 14.5256C0.38696 14.5636 0.383766 14.6018 0.3821 14.6404C0.381128 14.6606 0.380156 14.6806 0.379878 14.7007C0.379739 14.7096 0.378906 14.7184 0.378906 14.7274V34.2729C0.378906 34.9712 0.775905 35.6164 1.42035 35.9655L19.4584 45.7382C19.4668 45.7428 19.4754 45.7466 19.4837 45.7509C19.5023 45.7606 19.5212 45.7699 19.5401 45.779C19.5767 45.797 19.6138 45.8137 19.6515 45.8294C19.6685 45.8366 19.6852 45.8443 19.7026 45.8511C19.753 45.8707 19.8042 45.8879 19.856 45.9037C19.8761 45.9098 19.8965 45.9153 19.9169 45.9209C19.9597 45.9325 20.0026 45.9429 20.0459 45.952C20.0612 45.9553 20.0762 45.9591 20.0916 45.962C20.149 45.9726 20.2069 45.9806 20.2649 45.9867C20.2809 45.9884 20.2969 45.9897 20.3131 45.9911C20.3752 45.9965 20.4375 46 20.5 46C20.5625 46 20.6247 45.9965 20.6869 45.9911C20.703 45.9898 20.719 45.9884 20.7351 45.9867C20.7931 45.9805 20.8511 45.9726 20.9084 45.962C20.9238 45.9591 20.9388 45.9552 20.9541 45.952C20.9974 45.9431 21.0403 45.9326 21.0831 45.9209C21.1036 45.9153 21.1239 45.9098 21.144 45.9037C21.1957 45.8879 21.2469 45.8707 21.2975 45.8511C21.3148 45.8443 21.3315 45.8366 21.3486 45.8294C21.3862 45.8137 21.4233 45.797 21.46 45.779C21.479 45.7699 21.4977 45.7605 21.5163 45.7509C21.5245 45.7464 21.5333 45.7426 21.5416 45.7382L39.5797 35.9655C40.2241 35.6164 40.6211 34.9712 40.6211 34.2729V14.7273C40.621 14.7184 40.6202 14.7096 40.62 14.7006ZM20.5 7.21139L34.3723 14.7273L20.5 22.2432L6.62771 14.7273L20.5 7.21139ZM4.54482 18.1125L18.4171 25.6284V40.6601L4.54482 33.1442V18.1125ZM22.5829 40.6601V25.6284L36.4552 18.1125V33.1443L22.5829 40.6601Z" fill="white"/>
</g>
<defs>
<clipPath id="clip0_159_2134">
<rect width="41" height="43" fill="white" transform="translate(0 3)"/>
</clipPath>
</defs>
</svg>
